name rise49.25peak52.1432fall72.8391.mot
datacolumns 19
datarows 36
range 20.44992300000000 20.50825200000000
endheader
time	ground_force1_vx	ground_force1_vy	ground_force1_vz	ground_force1_px	ground_force1_py	ground_force1_pz	ground_force2_vx	ground_force2_vy	ground_force2_vz	ground_force2_px	ground_force2_py	ground_force2_pz	ground_torque1_x	ground_torque1_y	ground_torque1_z	ground_torque2_x	ground_torque2_y	ground_torque2_z	
20.44992300000000	55.53713600000000	783.20616199999995	51.16983300000000	0.32525100000000	0.00000000000000	0.10014400000000	0.00000000000000	0.00000000000000	0.00000000000000	0.00000000000000	0.00000000000000	0.00000000000000	0.00000000000000	20.76193000000000	0.00000000000000	0.00000000000000	0.00000000000000	0.00000000000000	
20.45158600000000	54.99252900000000	784.84110799999996	51.23479400000000	0.32431000000000	0.00000000000000	0.10013900000000	0.00000000000000	0.00000000000000	0.00000000000000	0.00000000000000	0.00000000000000	0.00000000000000	0.00000000000000	20.79136100000000	0.00000000000000	0.00000000000000	0.00000000000000	0.00000000000000	
20.45325100000000	54.44878800000000	786.34189200000003	51.29347600000000	0.32339000000000	0.00000000000000	0.10013400000000	0.00000000000000	0.00000000000000	0.00000000000000	0.00000000000000	0.00000000000000	0.00000000000000	0.00000000000000	20.81829600000000	0.00000000000000	0.00000000000000	0.00000000000000	0.00000000000000	
20.45491800000000	53.90614600000000	787.70954400000005	51.34583400000000	0.32249200000000	0.00000000000000	0.10012800000000	0.00000000000000	0.00000000000000	0.00000000000000	0.00000000000000	0.00000000000000	0.00000000000000	0.00000000000000	20.84271800000000	0.00000000000000	0.00000000000000	0.00000000000000	0.00000000000000	
20.45658600000000	53.36479000000000	788.94521699999996	51.39181100000000	0.32161200000000	0.00000000000000	0.10012200000000	0.00000000000000	0.00000000000000	0.00000000000000	0.00000000000000	0.00000000000000	0.00000000000000	0.00000000000000	20.86459700000000	0.00000000000000	0.00000000000000	0.00000000000000	0.00000000000000	
20.45826000000000	52.82485800000000	790.05019300000004	51.43133400000000	0.32075200000000	0.00000000000000	0.10011500000000	0.00000000000000	0.00000000000000	0.00000000000000	0.00000000000000	0.00000000000000	0.00000000000000	0.00000000000000	20.88389600000000	0.00000000000000	0.00000000000000	0.00000000000000	0.00000000000000	
20.45991600000000	52.28644800000000	791.02588900000001	51.46432000000000	0.31990900000000	0.00000000000000	0.10010800000000	0.00000000000000	0.00000000000000	0.00000000000000	0.00000000000000	0.00000000000000	0.00000000000000	0.00000000000000	20.90056900000000	0.00000000000000	0.00000000000000	0.00000000000000	0.00000000000000	
20.46159100000000	51.74961600000000	791.87385500000005	51.49067800000000	0.31908300000000	0.00000000000000	0.10010100000000	0.00000000000000	0.00000000000000	0.00000000000000	0.00000000000000	0.00000000000000	0.00000000000000	0.00000000000000	20.91456600000000	0.00000000000000	0.00000000000000	0.00000000000000	0.00000000000000	
20.46325500000000	51.21438400000000	792.59577999999999	51.51031600000000	0.31827200000000	0.00000000000000	0.10009300000000	0.00000000000000	0.00000000000000	0.00000000000000	0.00000000000000	0.00000000000000	0.00000000000000	0.00000000000000	20.92583300000000	0.00000000000000	0.00000000000000	0.00000000000000	0.00000000000000	
20.46492400000000	50.68073800000000	793.19349199999999	51.52313800000000	0.31747500000000	0.00000000000000	0.10008500000000	0.00000000000000	0.00000000000000	0.00000000000000	0.00000000000000	0.00000000000000	0.00000000000000	0.00000000000000	20.93431200000000	0.00000000000000	0.00000000000000	0.00000000000000	0.00000000000000	
20.46658400000000	50.14863900000000	793.66896099999997	51.52905200000000	0.31669100000000	0.00000000000000	0.10007700000000	0.00000000000000	0.00000000000000	0.00000000000000	0.00000000000000	0.00000000000000	0.00000000000000	0.00000000000000	20.93994700000000	0.00000000000000	0.00000000000000	0.00000000000000	0.00000000000000	
20.46825500000000	49.61801800000000	794.02429400000005	51.52796900000000	0.31591800000000	0.00000000000000	0.10006800000000	0.00000000000000	0.00000000000000	0.00000000000000	0.00000000000000	0.00000000000000	0.00000000000000	0.00000000000000	20.94267900000000	0.00000000000000	0.00000000000000	0.00000000000000	0.00000000000000	
20.46992500000000	49.08878700000000	794.26174400000002	51.51981000000000	0.31515400000000	0.00000000000000	0.10006000000000	0.00000000000000	0.00000000000000	0.00000000000000	0.00000000000000	0.00000000000000	0.00000000000000	0.00000000000000	20.94245500000000	0.00000000000000	0.00000000000000	0.00000000000000	0.00000000000000	
20.47159100000000	48.56083700000000	794.38369799999998	51.50450300000000	0.31439900000000	0.00000000000000	0.10005100000000	0.00000000000000	0.00000000000000	0.00000000000000	0.00000000000000	0.00000000000000	0.00000000000000	0.00000000000000	20.93922300000000	0.00000000000000	0.00000000000000	0.00000000000000	0.00000000000000	
20.47325800000000	48.03404700000000	794.39268700000002	51.48199200000000	0.31365000000000	0.00000000000000	0.10004200000000	0.00000000000000	0.00000000000000	0.00000000000000	0.00000000000000	0.00000000000000	0.00000000000000	0.00000000000000	20.93293700000000	0.00000000000000	0.00000000000000	0.00000000000000	0.00000000000000	
20.47492300000000	47.50828000000000	794.29137300000002	51.45223400000000	0.31290700000000	0.00000000000000	0.10003300000000	0.00000000000000	0.00000000000000	0.00000000000000	0.00000000000000	0.00000000000000	0.00000000000000	0.00000000000000	20.92355700000000	0.00000000000000	0.00000000000000	0.00000000000000	0.00000000000000	
20.47659100000000	46.98339600000000	794.08255399999996	51.41520500000000	0.31216700000000	0.00000000000000	0.10002400000000	0.00000000000000	0.00000000000000	0.00000000000000	0.00000000000000	0.00000000000000	0.00000000000000	0.00000000000000	20.91105200000000	0.00000000000000	0.00000000000000	0.00000000000000	0.00000000000000	
20.47824900000000	46.45924400000000	793.76915799999995	51.37089600000000	0.31142900000000	0.00000000000000	0.10001500000000	0.00000000000000	0.00000000000000	0.00000000000000	0.00000000000000	0.00000000000000	0.00000000000000	0.00000000000000	20.89539700000000	0.00000000000000	0.00000000000000	0.00000000000000	0.00000000000000	
20.47991600000000	45.93567700000000	793.35423700000001	51.31932400000000	0.31069100000000	0.00000000000000	0.10000600000000	0.00000000000000	0.00000000000000	0.00000000000000	0.00000000000000	0.00000000000000	0.00000000000000	0.00000000000000	20.87657800000000	0.00000000000000	0.00000000000000	0.00000000000000	0.00000000000000	
20.48158400000000	45.41254500000000	792.84096599999998	51.26052300000000	0.30995200000000	0.00000000000000	0.09999700000000	0.00000000000000	0.00000000000000	0.00000000000000	0.00000000000000	0.00000000000000	0.00000000000000	0.00000000000000	20.85459200000000	0.00000000000000	0.00000000000000	0.00000000000000	0.00000000000000	
20.48325500000000	44.88970300000000	792.23263499999996	51.19455200000000	0.30921100000000	0.00000000000000	0.09998800000000	0.00000000000000	0.00000000000000	0.00000000000000	0.00000000000000	0.00000000000000	0.00000000000000	0.00000000000000	20.82944700000000	0.00000000000000	0.00000000000000	0.00000000000000	0.00000000000000	
20.48492200000000	44.36701300000000	791.53264500000000	51.12149500000000	0.30846500000000	0.00000000000000	0.09998000000000	0.00000000000000	0.00000000000000	0.00000000000000	0.00000000000000	0.00000000000000	0.00000000000000	0.00000000000000	20.80116200000000	0.00000000000000	0.00000000000000	0.00000000000000	0.00000000000000	
20.48658500000000	43.84434600000000	790.74450000000002	51.04145800000000	0.30771400000000	0.00000000000000	0.09997100000000	0.00000000000000	0.00000000000000	0.00000000000000	0.00000000000000	0.00000000000000	0.00000000000000	0.00000000000000	20.76976800000000	0.00000000000000	0.00000000000000	0.00000000000000	0.00000000000000	
20.48825300000000	43.32158400000000	789.87180300000000	50.95457400000000	0.30695600000000	0.00000000000000	0.09996300000000	0.00000000000000	0.00000000000000	0.00000000000000	0.00000000000000	0.00000000000000	0.00000000000000	0.00000000000000	20.73531100000000	0.00000000000000	0.00000000000000	0.00000000000000	0.00000000000000	
20.48992000000000	42.79862300000000	788.91824699999995	50.86100000000000	0.30618900000000	0.00000000000000	0.09995500000000	0.00000000000000	0.00000000000000	0.00000000000000	0.00000000000000	0.00000000000000	0.00000000000000	0.00000000000000	20.69784700000000	0.00000000000000	0.00000000000000	0.00000000000000	0.00000000000000	
20.49159300000000	42.27537400000000	787.88760800000000	50.76091600000000	0.30541300000000	0.00000000000000	0.09994700000000	0.00000000000000	0.00000000000000	0.00000000000000	0.00000000000000	0.00000000000000	0.00000000000000	0.00000000000000	20.65744600000000	0.00000000000000	0.00000000000000	0.00000000000000	0.00000000000000	
20.49325100000000	41.75176500000000	786.78373799999997	50.65453000000000	0.30462600000000	0.00000000000000	0.09993900000000	0.00000000000000	0.00000000000000	0.00000000000000	0.00000000000000	0.00000000000000	0.00000000000000	0.00000000000000	20.61419100000000	0.00000000000000	0.00000000000000	0.00000000000000	0.00000000000000	
20.49492000000000	41.22774300000000	785.61055499999998	50.54206800000000	0.30382800000000	0.00000000000000	0.09993200000000	0.00000000000000	0.00000000000000	0.00000000000000	0.00000000000000	0.00000000000000	0.00000000000000	0.00000000000000	20.56817700000000	0.00000000000000	0.00000000000000	0.00000000000000	0.00000000000000	
20.49659000000000	40.70327500000000	784.37203999999997	50.42378400000000	0.30301600000000	0.00000000000000	0.09992500000000	0.00000000000000	0.00000000000000	0.00000000000000	0.00000000000000	0.00000000000000	0.00000000000000	0.00000000000000	20.51951100000000	0.00000000000000	0.00000000000000	0.00000000000000	0.00000000000000	
20.49825800000000	40.17834700000000	783.07222000000002	50.29994900000000	0.30219000000000	0.00000000000000	0.09991900000000	0.00000000000000	0.00000000000000	0.00000000000000	0.00000000000000	0.00000000000000	0.00000000000000	0.00000000000000	20.46831200000000	0.00000000000000	0.00000000000000	0.00000000000000	0.00000000000000	
20.49992300000000	39.65296900000000	781.71516699999995	50.17085600000000	0.30135000000000	0.00000000000000	0.09991200000000	0.00000000000000	0.00000000000000	0.00000000000000	0.00000000000000	0.00000000000000	0.00000000000000	0.00000000000000	20.41471100000000	0.00000000000000	0.00000000000000	0.00000000000000	0.00000000000000	
20.50159000000000	39.12717200000000	780.30498699999998	50.03681700000000	0.30049400000000	0.00000000000000	0.09990700000000	0.00000000000000	0.00000000000000	0.00000000000000	0.00000000000000	0.00000000000000	0.00000000000000	0.00000000000000	20.35884600000000	0.00000000000000	0.00000000000000	0.00000000000000	0.00000000000000	
20.50325600000000	38.60100800000000	778.84580800000003	49.89815800000000	0.29962200000000	0.00000000000000	0.09990100000000	0.00000000000000	0.00000000000000	0.00000000000000	0.00000000000000	0.00000000000000	0.00000000000000	0.00000000000000	20.30086600000000	0.00000000000000	0.00000000000000	0.00000000000000	0.00000000000000	
20.50491800000000	38.07455300000000	777.34177799999998	49.75522200000000	0.29873400000000	0.00000000000000	0.09989600000000	0.00000000000000	0.00000000000000	0.00000000000000	0.00000000000000	0.00000000000000	0.00000000000000	0.00000000000000	20.24093000000000	0.00000000000000	0.00000000000000	0.00000000000000	0.00000000000000	
20.50658800000000	37.54790600000000	775.79704900000002	49.60836500000000	0.29782900000000	0.00000000000000	0.09989100000000	0.00000000000000	0.00000000000000	0.00000000000000	0.00000000000000	0.00000000000000	0.00000000000000	0.00000000000000	20.17920200000000	0.00000000000000	0.00000000000000	0.00000000000000	0.00000000000000	
20.50825200000000	37.02118500000000	774.21577200000002	49.45795100000000	0.29690600000000	0.00000000000000	0.09988700000000	0.00000000000000	0.00000000000000	0.00000000000000	0.00000000000000	0.00000000000000	0.00000000000000	0.00000000000000	20.11585400000000	0.00000000000000	0.00000000000000	0.00000000000000	0.00000000000000	
